<mxfile host="app.diagrams.net" agent="Mozilla/5.0 (Windows NT 10.0; Win64; x64) AppleWebKit/537.36 (KHTML, like Gecko) Chrome/134.0.0.0 Safari/537.36" version="26.1.1">
  <diagram name="第 1 页" id="VHo7CxosDJkk4MuNGZil">
    <mxGraphModel dx="1434" dy="738" grid="1" gridSize="10" guides="1" tooltips="1" connect="1" arrows="1" fold="1" page="1" pageScale="1" pageWidth="2000" pageHeight="2000" math="0" shadow="0">
      <root>
        <mxCell id="0" />
        <mxCell id="1" parent="0" />
        <mxCell id="1hlBtaatIz9UhxE-BgWO-6" style="edgeStyle=orthogonalEdgeStyle;rounded=0;orthogonalLoop=1;jettySize=auto;html=1;exitX=0.5;exitY=1;exitDx=0;exitDy=0;exitPerimeter=0;" edge="1" parent="1" source="1hlBtaatIz9UhxE-BgWO-3" target="1hlBtaatIz9UhxE-BgWO-4">
          <mxGeometry relative="1" as="geometry" />
        </mxCell>
        <mxCell id="1hlBtaatIz9UhxE-BgWO-3" value="开始" style="strokeWidth=2;html=1;shape=mxgraph.flowchart.terminator;whiteSpace=wrap;" vertex="1" parent="1">
          <mxGeometry x="469.5" y="70" width="90" height="50" as="geometry" />
        </mxCell>
        <mxCell id="1hlBtaatIz9UhxE-BgWO-8" style="edgeStyle=orthogonalEdgeStyle;rounded=0;orthogonalLoop=1;jettySize=auto;html=1;" edge="1" parent="1" source="1hlBtaatIz9UhxE-BgWO-4" target="1hlBtaatIz9UhxE-BgWO-7">
          <mxGeometry relative="1" as="geometry" />
        </mxCell>
        <mxCell id="1hlBtaatIz9UhxE-BgWO-4" value="系统上电" style="rounded=0;whiteSpace=wrap;html=1;" vertex="1" parent="1">
          <mxGeometry x="462" y="150" width="105" height="50" as="geometry" />
        </mxCell>
        <mxCell id="1hlBtaatIz9UhxE-BgWO-9" style="edgeStyle=orthogonalEdgeStyle;rounded=0;orthogonalLoop=1;jettySize=auto;html=1;exitX=0.5;exitY=1;exitDx=0;exitDy=0;" edge="1" parent="1" source="1hlBtaatIz9UhxE-BgWO-7">
          <mxGeometry relative="1" as="geometry">
            <mxPoint x="515" y="350" as="targetPoint" />
          </mxGeometry>
        </mxCell>
        <mxCell id="1hlBtaatIz9UhxE-BgWO-12" value="是" style="edgeLabel;html=1;align=center;verticalAlign=middle;resizable=0;points=[];fontSize=14;" vertex="1" connectable="0" parent="1hlBtaatIz9UhxE-BgWO-9">
          <mxGeometry x="0.1609" relative="1" as="geometry">
            <mxPoint y="-3" as="offset" />
          </mxGeometry>
        </mxCell>
        <mxCell id="1hlBtaatIz9UhxE-BgWO-20" style="edgeStyle=orthogonalEdgeStyle;rounded=0;orthogonalLoop=1;jettySize=auto;html=1;exitX=1;exitY=0.5;exitDx=0;exitDy=0;" edge="1" parent="1" source="1hlBtaatIz9UhxE-BgWO-7">
          <mxGeometry relative="1" as="geometry">
            <mxPoint x="690" y="270" as="targetPoint" />
          </mxGeometry>
        </mxCell>
        <mxCell id="1hlBtaatIz9UhxE-BgWO-22" value="否" style="edgeLabel;html=1;align=center;verticalAlign=middle;resizable=0;points=[];fontSize=14;" vertex="1" connectable="0" parent="1hlBtaatIz9UhxE-BgWO-20">
          <mxGeometry x="-0.1123" y="3" relative="1" as="geometry">
            <mxPoint x="1" as="offset" />
          </mxGeometry>
        </mxCell>
        <mxCell id="1hlBtaatIz9UhxE-BgWO-7" value="是否进行位置同步&lt;br&gt;（品字形）" style="rhombus;whiteSpace=wrap;html=1;" vertex="1" parent="1">
          <mxGeometry x="437.5" y="230" width="155" height="80" as="geometry" />
        </mxCell>
        <mxCell id="1hlBtaatIz9UhxE-BgWO-14" style="edgeStyle=orthogonalEdgeStyle;rounded=0;orthogonalLoop=1;jettySize=auto;html=1;exitX=0.5;exitY=1;exitDx=0;exitDy=0;" edge="1" parent="1" source="1hlBtaatIz9UhxE-BgWO-10" target="1hlBtaatIz9UhxE-BgWO-13">
          <mxGeometry relative="1" as="geometry" />
        </mxCell>
        <mxCell id="1hlBtaatIz9UhxE-BgWO-10" value="&lt;font style=&quot;color: rgb(255, 34, 10);&quot;&gt;广播指令使能所有电机&lt;br&gt;ID:0x000000FF&lt;br&gt;DATA:FA 01 00 00 00 00 00 00&lt;/font&gt;" style="rounded=0;whiteSpace=wrap;html=1;" vertex="1" parent="1">
          <mxGeometry x="408.75" y="350" width="212.5" height="60" as="geometry" />
        </mxCell>
        <mxCell id="1hlBtaatIz9UhxE-BgWO-16" style="edgeStyle=orthogonalEdgeStyle;rounded=0;orthogonalLoop=1;jettySize=auto;html=1;exitX=0.5;exitY=1;exitDx=0;exitDy=0;entryX=0.5;entryY=0;entryDx=0;entryDy=0;" edge="1" parent="1" source="1hlBtaatIz9UhxE-BgWO-13" target="1hlBtaatIz9UhxE-BgWO-15">
          <mxGeometry relative="1" as="geometry" />
        </mxCell>
        <mxCell id="1hlBtaatIz9UhxE-BgWO-13" value="广播指令使所有电机回原点&lt;br&gt;&lt;span style=&quot;color: rgb(255, 34, 10);&quot;&gt;ID:0x000000FF&lt;/span&gt;&lt;br style=&quot;color: rgb(255, 34, 10);&quot;&gt;&lt;font color=&quot;#ff220a&quot;&gt;DATA:F8 01 31 02 00 2A 00 00&lt;/font&gt;&lt;br&gt;&lt;font style=&quot;color: rgb(0, 0, 0);&quot;&gt;电机回原点后会自动进入同步模式&lt;/font&gt;" style="rounded=0;whiteSpace=wrap;html=1;" vertex="1" parent="1">
          <mxGeometry x="409" y="460" width="211" height="80" as="geometry" />
        </mxCell>
        <mxCell id="1hlBtaatIz9UhxE-BgWO-15" value="&lt;font style=&quot;color: rgb(0, 0, 0);&quot;&gt;此时只需要控制1号电机转速即可&lt;br&gt;其余电机会自动跟1号电机同步&lt;/font&gt;" style="rounded=0;whiteSpace=wrap;html=1;" vertex="1" parent="1">
          <mxGeometry x="419.5" y="580" width="191" height="60" as="geometry" />
        </mxCell>
        <mxCell id="1hlBtaatIz9UhxE-BgWO-18" value="结束" style="strokeWidth=2;html=1;shape=mxgraph.flowchart.terminator;whiteSpace=wrap;" vertex="1" parent="1">
          <mxGeometry x="469.5" y="690" width="90" height="50" as="geometry" />
        </mxCell>
        <mxCell id="1hlBtaatIz9UhxE-BgWO-19" style="edgeStyle=orthogonalEdgeStyle;rounded=0;orthogonalLoop=1;jettySize=auto;html=1;exitX=0.5;exitY=1;exitDx=0;exitDy=0;entryX=0.5;entryY=0;entryDx=0;entryDy=0;entryPerimeter=0;" edge="1" parent="1" source="1hlBtaatIz9UhxE-BgWO-15" target="1hlBtaatIz9UhxE-BgWO-18">
          <mxGeometry relative="1" as="geometry" />
        </mxCell>
        <mxCell id="1hlBtaatIz9UhxE-BgWO-21" value="按正常控制即可" style="rounded=0;whiteSpace=wrap;html=1;" vertex="1" parent="1">
          <mxGeometry x="700" y="240" width="120" height="60" as="geometry" />
        </mxCell>
        <mxCell id="1hlBtaatIz9UhxE-BgWO-23" style="edgeStyle=orthogonalEdgeStyle;rounded=0;orthogonalLoop=1;jettySize=auto;html=1;exitX=0.5;exitY=1;exitDx=0;exitDy=0;entryX=1;entryY=0.5;entryDx=0;entryDy=0;entryPerimeter=0;" edge="1" parent="1" source="1hlBtaatIz9UhxE-BgWO-21" target="1hlBtaatIz9UhxE-BgWO-18">
          <mxGeometry relative="1" as="geometry" />
        </mxCell>
      </root>
    </mxGraphModel>
  </diagram>
</mxfile>
